====================== Fly Project - Unisex HD 1080p===========================

Format                           : MPEG-4
Format profile                   : Base Media / Version 2
Codec ID                         : mp42
File size                        : 94.2 MiB
Duration                         : 3mn 40s
Overall bit rate                 : 3 583 Kbps
Encoded date                     : UTC 2009-11-06 08:36:52
Tagged date                      : UTC 2009-11-06 08:36:52
gsst                             : 0

Video
ID                               : 2
Format                           : AVC
Format/Info                      : Advanced Video Codec
Format profile                   : High@L4.0
Format settings, CABAC           : Yes
Format settings, ReFrames        : 3 frames
Codec ID                         : avc1
Codec ID/Info                    : Advanced Video Coding
Duration                         : 3mn 40s
Bit rate mode                    : Variable
Bit rate                         : 3 456 Kbps
Maximum bit rate                 : 7 411 Kbps
Width                            : 1 920 pixels
Height                           : 1 080 pixels
Display aspect ratio             : 16:9
Frame rate mode                  : Constant
Frame rate                       : 25.000 fps
Color space                      : YUV
Chroma subsampling               : 4:2:0
Bit depth                        : 8 bits
Scan type                        : Progressive
Bits/(Pixel*Frame)               : 0.067
Stream size                      : 90.8 MiB (96%)
Title                            : (C) 2007 Google Inc. v08.13.2007.
Encoded date                     : UTC 2009-11-06 08:36:52
Tagged date                      : UTC 2009-11-06 08:37:03

Audio
ID                               : 1
Format                           : AAC
Format/Info                      : Advanced Audio Codec
Format version                   : Version 4
Format profile                   : LC
Format settings, SBR             : No
Codec ID                         : 40
Duration                         : 3mn 40s
Bit rate mode                    : Variable
Bit rate                         : 124 Kbps
Maximum bit rate                 : 151 Kbps
Channel(s)                       : 2 channels
Channel positions                : Front: L R
Sampling rate                    : 44.1 KHz
Stream size                      : 3.27 MiB (3%)
Title                            : (C) 2007 Google Inc. v08.13.2007.
Encoded date                     : UTC 2009-11-06 08:36:52
Tagged date                      : UTC 2009-11-06 08:37:03

========================== SCREEN SHOT ========================================

                       http://bayimg.com/kAIfgAadn
                       http://bayimg.com/KAiFhaadn
                       http://bayimg.com/kAifJaADN

============================ FOLLOW ME ON TWEETER AND FACEBOOK =================

           http :///#!/ haunting_summer

  http: // www. facebook. com/ pages/ HaUnTiNgSuMMeR-ToRrEnTs/ 192812490771363

=================================================================================

--------------- PLZ RATE +/- THE QUALITY N COMMENT IF POSSIBLE -----------------
		

